<?xml version="1.0" standalone="no"?>
<!DOCTYPE svg PUBLIC "-//W3C//DTD SVG 20010904//EN"
 "http://www.w3.org/TR/2001/REC-SVG-20010904/DTD/svg10.dtd">
<svg version="1.0" xmlns="http://www.w3.org/2000/svg"
 width="728.000000pt" height="508.000000pt" viewBox="0 0 728.000000 508.000000"
 preserveAspectRatio="xMidYMid meet">

<g transform="translate(0.000000,508.000000) scale(0.100000,-0.100000)"
fill="#000000" stroke="none">
<path d="M5725 5035 c-82 -23 -226 -64 -320 -89 -93 -26 -316 -88 -495 -138
-179 -50 -354 -98 -390 -108 -36 -10 -148 -41 -250 -69 -102 -29 -225 -63
-275 -77 -49 -13 -160 -44 -245 -68 l-155 -43 -3 123 -3 124 -84 0 -85 0 0
-149 0 -149 -40 -10 -40 -10 0 78 0 77 -82 -2 -83 -3 -3 -100 -3 -100 -31 -6
c-46 -9 -48 -8 -48 19 0 25 -1 25 -82 25 l-83 0 0 -662 0 -663 -48 -7 c-33 -4
-63 -18 -94 -42 -36 -28 -56 -36 -87 -36 -118 0 -319 -79 -443 -174 -69 -52
-164 -163 -208 -242 l-28 -51 -56 29 c-50 27 -63 29 -123 25 -51 -3 -77 -11
-113 -33 -53 -33 -102 -101 -111 -153 -23 -136 -31 -141 -214 -141 l-130 0 0
-27 c2 -226 43 -509 100 -702 159 -535 522 -1028 976 -1328 l84 -55 0 -49 0
-49 990 0 990 0 0 49 c0 48 1 49 53 82 363 227 664 568 868 984 147 300 239
680 239 987 l0 108 -205 0 -205 0 0 330 0 330 -85 0 -85 0 -1 -327 c-1 -220
-4 -311 -10 -277 -5 29 -21 83 -36 120 -27 68 -27 74 -31 319 l-3 250 -82 0
-82 0 0 -133 c0 -72 -1 -132 -2 -132 -1 0 -38 24 -81 54 -86 58 -161 90 -262
112 -170 36 -423 -3 -527 -82 l-31 -24 -7 53 c-15 114 -79 193 -180 222 -66
20 -134 9 -200 -30 -67 -39 -95 -90 -120 -217 -12 -63 -91 -90 -133 -45 -13
13 -25 45 -31 84 -9 56 -45 132 -71 148 -7 4 -10 192 -10 576 l0 569 40 0 40
0 0 -87 c0 -49 0 -289 0 -535 l0 -447 85 -3 85 -3 0 538 0 537 40 0 40 0 0
-80 0 -80 85 0 85 0 0 80 0 80 1201 0 1202 0 -7 53 c-3 28 -6 67 -6 84 l0 33
-1166 2 -1167 3 229 63 c126 35 299 83 384 107 412 115 539 151 845 235 182
51 452 126 600 166 149 41 278 77 287 80 13 4 15 10 8 32 -5 15 -14 46 -20 70
l-11 42 -47 -1 c-26 -1 -114 -20 -197 -44z m-2754 -2178 c24 -18 39 -52 39
-86 0 -63 48 -144 111 -186 95 -63 219 -52 304 26 47 43 70 93 80 171 9 69 61
104 120 82 26 -10 45 -59 45 -116 0 -29 5 -70 11 -91 10 -36 8 -41 -29 -90
-64 -84 -110 -188 -132 -300 -11 -53 -14 -57 -33 -51 -38 11 -57 38 -67 97 -5
31 -16 72 -25 90 -24 50 -84 103 -138 121 -96 32 -177 16 -248 -51 -51 -47
-73 -95 -84 -174 -7 -57 -33 -83 -81 -83 -48 0 -72 28 -85 99 -14 75 -38 124
-82 162 -84 74 -207 83 -297 22 -55 -37 -97 -97 -106 -148 -15 -87 -25 -111
-54 -126 -38 -20 -52 -19 -83 5 -25 20 -25 20 -11 76 73 278 352 484 657 484
59 0 67 2 67 19 0 44 83 77 121 48z m1429 -174 c72 -20 174 -73 230 -122 81
-69 164 -214 184 -319 l6 -33 -345 3 c-399 3 -377 -3 -394 106 -6 35 -20 79
-31 97 -33 53 -97 102 -151 116 -57 15 -55 20 32 78 135 90 310 118 469 74z
m-2516 -317 c37 -16 56 -55 56 -117 l0 -39 -90 0 -91 0 7 53 c9 71 33 105 82
116 1 1 18 -5 36 -13z m692 -24 c7 -9 16 -35 19 -57 4 -22 9 -48 11 -57 5 -16
-4 -18 -90 -18 -53 0 -96 4 -96 9 0 33 23 118 36 132 29 32 93 28 120 -9z
m1330 -13 c6 -13 14 -45 18 -71 l6 -48 -96 0 -95 0 6 38 c14 78 26 103 58 117
40 17 87 0 103 -36z m-686 31 c19 -10 34 -47 45 -112 l6 -38 -96 0 -96 0 6 38
c14 82 17 93 38 107 25 17 70 20 97 5z m2168 -319 c39 -4 -20 -359 -99 -595
-42 -126 -161 -380 -223 -476 -216 -338 -512 -616 -826 -777 l-85 -43 -733 0
-734 0 -88 46 c-301 155 -578 409 -786 720 -70 105 -183 326 -234 459 -33 87
-93 304 -110 400 -18 107 -30 259 -19 265 7 5 3893 6 3937 1z"/>
<path d="M1770 1715 l0 -85 455 0 455 0 0 85 0 85 -455 0 -455 0 0 -85z"/>
<path d="M2840 1715 l0 -85 85 0 85 0 0 85 0 85 -85 0 -85 0 0 -85z"/>
<path d="M3172 1718 l3 -83 83 -3 82 -3 0 86 0 85 -85 0 -86 0 3 -82z"/>
</g>
</svg>
