<?xml version="1.0" standalone="no"?>
<!DOCTYPE svg PUBLIC "-//W3C//DTD SVG 20010904//EN"
 "http://www.w3.org/TR/2001/REC-SVG-20010904/DTD/svg10.dtd">
<svg version="1.0" xmlns="http://www.w3.org/2000/svg"
 width="850.000000pt" height="981.000000pt" viewBox="0 0 850.000000 981.000000"
 preserveAspectRatio="xMidYMid meet">

<g transform="translate(0.000000,981.000000) scale(0.100000,-0.100000)"
fill="#000000" stroke="none">
<path d="M305 9767 c-23 -25 -58 -75 -76 -113 -28 -57 -33 -78 -33 -138 0 -61
4 -80 33 -136 93 -181 174 -245 306 -242 39 1 79 -2 90 -7 35 -14 107 -31 197
-46 47 -7 94 -18 105 -23 32 -17 323 -54 538 -68 44 -3 85 -10 91 -15 7 -5
117 -21 245 -35 287 -30 545 -65 789 -105 102 -16 311 -48 465 -70 154 -22
420 -62 590 -90 171 -27 357 -56 415 -65 58 -8 188 -28 290 -44 102 -17 221
-33 265 -36 48 -4 87 -13 97 -21 13 -12 31 -13 76 -8 51 6 60 4 66 -11 5 -14
15 -16 63 -10 45 5 60 3 74 -10 16 -14 44 -17 174 -19 85 0 157 -4 161 -8 4
-4 33 -7 65 -7 32 0 60 -4 63 -9 3 -5 29 -11 58 -15 29 -3 85 -11 123 -16 39
-5 100 -12 138 -16 37 -4 70 -11 73 -15 3 -5 38 -9 79 -9 41 0 76 -4 79 -9 3
-4 38 -11 78 -15 121 -11 430 -64 441 -75 6 -6 29 -11 52 -11 22 -1 58 -8 80
-16 47 -18 75 -25 210 -54 55 -12 170 -42 255 -67 176 -52 481 -133 615 -164
103 -24 287 -31 307 -11 23 23 -6 58 -68 82 -32 11 -69 27 -83 35 -49 26 -206
86 -266 101 -33 8 -110 32 -170 53 -61 21 -137 44 -170 51 -33 6 -109 31 -170
55 -60 24 -155 56 -210 70 -55 15 -122 36 -150 47 -125 51 -189 72 -315 103
-74 19 -165 45 -201 59 -36 13 -137 41 -225 60 -87 20 -267 63 -399 96 -132
34 -310 76 -395 95 -85 19 -261 59 -390 89 -129 30 -286 64 -349 75 -62 12
-249 52 -415 90 -505 117 -1072 231 -1499 301 -97 16 -186 34 -197 40 -12 6
-58 18 -103 25 -95 17 -152 28 -257 50 -237 49 -664 133 -1073 209 -172 33
-385 65 -530 81 l-59 7 -43 -45z m267 -265 c2 -5 73 -21 158 -37 259 -46 1119
-220 1193 -241 9 -3 14 -10 11 -16 -4 -6 -26 -8 -58 -3 -271 36 -572 66 -726
72 -85 3 -164 10 -175 16 -12 6 -88 9 -195 8 -159 -2 -177 -1 -192 16 -45 51
-74 167 -47 184 18 11 26 11 31 1z"/>
<path d="M463 8045 c-23 -7 -80 -16 -125 -20 -128 -10 -217 -24 -249 -40 -22
-12 -33 -29 -49 -82 -46 -148 -50 -334 -9 -419 18 -37 37 -40 284 -54 110 -6
283 -15 385 -21 102 -5 415 -14 697 -19 282 -4 529 -11 550 -14 70 -11 1291
-67 2128 -98 355 -13 1168 -17 1805 -9 179 2 534 -1 790 -7 256 -7 546 -14
645 -16 99 -2 232 -9 295 -15 223 -21 362 -12 476 30 52 20 52 20 42 49 -15
44 -68 85 -140 109 -102 34 -306 71 -394 71 -49 0 -92 5 -108 13 -18 10 -53
13 -125 9 -64 -3 -117 0 -152 9 -33 8 -125 14 -239 15 -102 1 -378 7 -615 12
-236 6 -644 15 -905 21 -385 9 -517 16 -695 36 -121 14 -393 43 -605 65 -694
73 -1053 122 -1520 209 -524 97 -1202 160 -1895 175 -182 4 -239 3 -272 -9z
m-207 -232 c4 -21 20 -63 35 -93 35 -67 36 -80 5 -80 -47 0 -58 23 -71 153 -4
46 -2 57 9 57 10 0 18 -14 22 -37z m197 17 c23 -18 47 -69 72 -149 7 -23 6
-24 -35 -18 -65 8 -102 53 -119 142 l-8 45 32 0 c18 0 44 -9 58 -20z m612 -40
c376 -29 676 -59 685 -67 18 -16 -64 -21 -349 -22 -179 -1 -362 -6 -406 -12
-44 -5 -138 -9 -209 -7 l-128 3 -28 40 c-16 22 -32 55 -35 74 l-7 34 48 -7
c27 -3 220 -19 429 -36z"/>
<path d="M4677 6725 c-52 -19 -140 -80 -209 -143 l-58 -54 -30 25 c-80 68
-262 95 -420 63 -47 -10 -166 -50 -269 -92 l-186 -75 -86 -89 c-82 -85 -110
-103 -124 -80 -4 6 -23 18 -43 27 -30 13 -78 18 -240 21 -123 2 -208 0 -215
-6 -7 -5 -31 -13 -54 -17 -23 -3 -47 -13 -54 -21 -6 -8 -20 -14 -30 -14 -9 0
-27 -13 -39 -30 l-21 -30 -133 0 c-127 0 -136 -1 -200 -30 -37 -17 -93 -40
-124 -52 -31 -11 -72 -36 -90 -54 -18 -19 -38 -34 -43 -34 -13 0 -129 -115
-129 -128 0 -5 -11 -21 -25 -36 -22 -24 -31 -26 -102 -26 -128 -1 -227 -22
-334 -74 -53 -25 -101 -46 -106 -46 -5 0 -20 -11 -33 -25 -13 -14 -31 -25 -41
-25 -9 0 -67 -60 -132 -139 -98 -117 -121 -140 -151 -145 -19 -4 -83 -31 -143
-60 -109 -54 -127 -69 -250 -217 -7 -8 -27 -103 -44 -210 -29 -186 -30 -203
-26 -424 7 -323 40 -527 162 -1010 47 -185 74 -272 103 -330 22 -44 66 -150
97 -235 81 -218 294 -670 330 -700 9 -8 28 -36 41 -62 14 -27 39 -65 57 -86
18 -20 38 -49 44 -63 6 -14 35 -54 65 -90 29 -35 70 -86 90 -114 47 -62 319
-355 329 -355 5 0 36 -25 71 -56 34 -31 76 -63 92 -71 16 -8 40 -28 54 -44 13
-16 55 -49 93 -74 38 -25 69 -49 69 -54 0 -5 10 -13 23 -16 12 -4 65 -33 117
-65 52 -32 142 -81 200 -108 58 -28 113 -59 121 -69 24 -27 124 -248 149 -328
15 -46 24 -108 27 -183 l6 -113 43 -38 c94 -82 238 -136 459 -171 135 -21 547
-36 960 -34 374 1 1096 21 1215 34 413 43 675 142 844 319 64 68 66 78 36 182
-22 74 -13 88 93 142 360 182 729 491 1015 850 466 584 772 1296 897 2087 31
196 47 383 55 640 6 183 14 290 26 345 21 101 25 400 6 490 -37 169 -97 293
-180 367 -54 49 -107 75 -200 99 -67 17 -95 19 -210 13 -96 -5 -136 -3 -146 6
-8 6 -24 39 -36 73 -18 54 -31 71 -96 131 -68 62 -84 71 -157 92 -44 13 -106
24 -137 24 -67 0 -191 -30 -250 -60 -23 -12 -43 -20 -45 -18 -1 2 -10 26 -19
54 -31 96 -115 155 -262 184 l-59 12 -18 61 c-28 95 -82 182 -169 273 -91 95
-93 96 -283 98 -138 1 -217 -12 -295 -48 -95 -45 -127 -35 -320 94 -47 31
-107 69 -135 82 -64 33 -178 68 -219 68 -36 0 -196 -44 -239 -66 -26 -14 -30
-13 -70 19 -92 75 -172 94 -260 62z m142 -379 c6 -7 19 -50 27 -94 10 -47 25
-90 36 -102 21 -23 72 -27 112 -9 29 13 56 73 56 123 0 46 19 62 88 77 142 30
315 5 414 -61 63 -42 72 -68 66 -198 -8 -166 11 -202 105 -202 68 0 97 31 131
142 l26 86 73 30 c39 17 100 37 133 46 64 17 190 21 211 8 24 -15 43 -83 53
-184 17 -171 29 -238 50 -279 47 -91 127 -83 197 19 58 83 117 105 150 55 15
-22 19 -56 23 -175 5 -143 6 -148 32 -174 38 -39 63 -28 174 79 90 88 100 95
179 121 47 15 110 28 143 29 51 1 66 -3 111 -32 28 -18 60 -45 71 -59 28 -35
26 -110 -6 -234 -16 -64 -24 -112 -20 -133 9 -47 51 -85 93 -85 47 0 69 13
133 80 41 44 66 61 100 70 62 17 246 9 285 -12 64 -34 102 -149 112 -334 6
-117 5 -122 -16 -133 -16 -9 -21 -21 -21 -55 l0 -43 -73 -22 c-121 -36 -356
-77 -679 -120 -169 -23 -358 -51 -420 -62 -92 -17 -176 -23 -443 -29 -207 -5
-474 -20 -715 -39 -212 -17 -502 -36 -645 -41 -143 -6 -323 -15 -400 -20 -179
-12 -511 -12 -685 0 -74 5 -256 14 -405 19 -148 6 -292 13 -320 15 -27 3 -99
10 -160 16 -330 33 -642 85 -1282 215 -458 93 -784 154 -938 175 -130 17 -125
15 -125 61 0 124 107 181 385 204 77 7 83 5 165 -30 96 -42 144 -48 183 -22
52 34 30 105 -59 182 -35 31 -64 64 -64 72 0 57 125 183 181 183 18 0 58 5 90
12 48 10 80 8 215 -11 101 -14 175 -30 203 -43 61 -29 129 -35 169 -14 62 32
67 76 17 170 -51 96 -48 129 16 184 59 50 98 55 150 17 19 -13 44 -32 56 -41
12 -8 41 -18 64 -21 55 -8 124 -55 138 -93 19 -55 91 -30 107 37 6 24 -3 86
-33 211 -5 19 2 25 38 41 101 45 259 47 400 5 113 -34 146 -60 199 -162 37
-70 89 -122 123 -122 61 0 144 96 133 154 -3 17 -26 74 -51 126 -25 52 -45
102 -45 110 0 17 96 84 175 123 114 56 324 105 401 94 98 -15 119 -21 151 -43
19 -13 51 -26 69 -30 25 -5 48 -21 81 -60 72 -83 134 -96 196 -39 48 44 49 78
1 155 -46 74 -43 102 9 111 20 3 40 9 44 12 11 12 50 7 62 -7z m-3880 -1846
c24 -12 593 -157 841 -214 541 -123 1054 -209 1610 -268 188 -19 270 -22 1005
-25 l800 -4 410 30 c1094 81 1127 83 1185 68 41 -10 88 -12 188 -6 168 10 289
33 627 119 240 62 345 84 493 104 l42 6 -5 -37 c-76 -563 -134 -840 -255
-1203 -111 -333 -240 -606 -432 -915 -249 -400 -472 -647 -853 -945 -66 -51
-145 -115 -176 -142 -62 -52 -73 -55 -137 -33 -52 18 -69 11 -127 -51 l-40
-43 -110 -11 c-161 -16 -245 -64 -245 -140 0 -57 58 -120 109 -120 12 0 33 -7
46 -16 19 -12 38 -14 88 -9 87 9 107 2 107 -39 0 -22 -8 -40 -27 -58 -33 -31
-42 -34 -175 -58 -57 -10 -130 -25 -162 -34 -33 -8 -119 -18 -192 -22 -157 -8
-154 -11 -154 117 l0 83 -51 48 c-28 26 -56 48 -63 48 -6 0 -25 -9 -42 -19
-46 -28 -67 -82 -74 -186 l-5 -90 -125 0 -125 0 -6 75 c-4 41 -10 130 -14 198
-10 145 -22 171 -129 263 -62 54 -68 57 -146 68 -133 20 -350 31 -619 31 -175
0 -350 8 -570 25 -174 13 -353 27 -398 31 -46 3 -83 10 -83 15 0 5 -8 9 -17 9
-37 0 -144 60 -202 114 -33 30 -77 66 -98 79 -21 14 -49 37 -63 51 -13 15 -40
37 -60 48 -19 12 -53 38 -76 59 -23 20 -50 40 -61 43 -21 7 -36 20 -283 256
-137 131 -190 193 -177 207 3 2 31 0 63 -6 173 -32 364 14 364 87 0 34 -35 92
-55 92 -8 0 -24 9 -35 20 -12 12 -33 20 -53 20 -18 0 -42 7 -53 15 -15 11 -54
14 -176 15 -93 0 -159 4 -163 10 -3 6 -38 10 -76 10 -63 0 -70 2 -78 23 -5 12
-21 37 -35 56 -50 67 -50 68 159 46 302 -31 468 -8 570 79 49 42 44 55 -36
104 -108 65 -247 96 -596 132 -270 27 -303 34 -330 67 -33 41 -100 181 -117
248 -8 32 -14 60 -13 61 1 1 70 -9 152 -22 526 -82 782 -92 1030 -37 65 14 75
19 75 37 0 12 -7 32 -17 45 -9 13 -19 37 -22 54 -5 23 -14 33 -36 39 -17 5
-43 15 -60 22 -49 22 -175 49 -260 57 -257 23 -341 31 -435 41 -58 6 -190 13
-295 15 -104 2 -199 8 -210 12 -11 5 -28 12 -37 15 -11 3 -18 15 -18 29 0 13
-5 28 -12 35 -7 7 -9 12 -6 12 4 0 -4 30 -18 68 -38 102 -44 123 -44 168 l0
41 83 -24 c45 -13 143 -35 217 -49 151 -27 550 -75 577 -68 10 2 66 10 125 18
114 14 163 34 187 77 34 60 -13 115 -130 154 -43 15 -81 31 -84 36 -4 5 -19 9
-35 9 -16 0 -86 9 -157 19 -241 37 -683 81 -814 81 l-37 0 -21 78 c-20 74 -64
439 -54 455 6 10 21 9 42 -3z m3704 -3857 c3 -71 8 -136 12 -145 7 -17 -4 -18
-133 -18 l-141 0 -21 58 c-19 50 -40 143 -40 180 0 8 18 12 58 12 31 0 93 9
137 19 133 32 121 41 128 -106z m-1243 17 c0 -57 -4 -90 -11 -90 -17 0 -68 62
-78 95 -27 87 -27 85 34 85 l55 0 0 -90z m655 59 c4 -5 11 -58 16 -117 5 -59
12 -115 15 -124 5 -16 -2 -18 -49 -18 -43 0 -56 4 -62 17 -14 37 -17 141 -6
196 12 56 13 57 46 57 19 0 37 -5 40 -11z m-346 -31 c5 -13 6 -52 2 -88 l-7
-65 -17 32 c-22 42 -24 143 -2 143 9 0 19 -10 24 -22z"/>
<path d="M4628 5705 c-43 -16 -74 -35 -150 -93 -50 -37 -60 -50 -74 -99 -20
-70 -13 -121 22 -151 46 -40 108 -15 170 69 35 49 77 79 109 79 40 0 105 -73
105 -118 0 -37 84 -84 108 -60 6 6 21 16 34 22 21 10 23 19 26 90 3 72 1 82
-24 118 -42 60 -130 136 -172 148 -49 13 -109 12 -154 -5z"/>
<path d="M5762 5430 c-100 -66 -142 -120 -142 -181 0 -53 13 -64 69 -64 42 0
58 6 108 41 84 59 117 74 165 74 63 0 99 -27 140 -106 20 -38 47 -79 61 -92
29 -27 86 -38 108 -20 50 41 69 125 40 178 -10 19 -28 54 -40 77 -13 24 -51
66 -90 97 l-68 56 -130 0 -129 0 -92 -60z"/>
<path d="M3580 5425 c-57 -16 -68 -25 -152 -130 -49 -60 -73 -114 -88 -195
-11 -58 -10 -62 17 -100 31 -43 60 -60 101 -60 47 0 70 25 83 90 21 110 90
182 174 184 36 1 49 -4 77 -31 18 -17 45 -36 60 -42 17 -6 33 -24 42 -45 16
-37 61 -71 109 -82 24 -5 35 -1 60 24 35 35 48 112 27 153 -31 58 -124 170
-152 185 -107 56 -259 76 -358 49z"/>
<path d="M2287 5190 c-75 -19 -125 -58 -146 -112 -10 -26 -7 -30 35 -59 38
-26 52 -30 82 -25 117 19 118 19 236 -15 114 -32 117 -32 152 -15 33 15 36 20
30 49 -19 96 -136 171 -283 182 -38 2 -85 0 -106 -5z"/>
<path d="M4890 5069 c-83 -14 -176 -63 -206 -109 -20 -31 -25 -48 -22 -91 l3
-54 36 -3 c27 -2 54 6 101 32 58 32 72 36 139 36 65 0 93 -4 185 -25 12 -2 50
-28 85 -56 74 -60 131 -88 176 -89 28 0 34 4 39 28 3 15 8 33 10 41 2 7 -1 32
-7 55 -16 60 -85 122 -209 185 -98 51 -108 54 -189 57 -47 2 -111 -1 -141 -7z"/>
<path d="M6575 4863 c-22 -20 -59 -54 -83 -76 -37 -33 -45 -47 -52 -93 -12
-70 4 -124 41 -141 43 -21 84 0 129 68 22 32 50 65 62 73 39 27 94 20 179 -24
43 -22 91 -40 107 -40 43 0 72 28 79 76 5 37 2 46 -28 78 -19 19 -66 53 -106
76 -72 40 -73 40 -180 40 l-108 -1 -40 -36z"/>
<path d="M6130 3460 c0 -5 -11 -12 -25 -16 -36 -9 -185 -270 -219 -383 -16
-53 -21 -175 -10 -216 8 -30 99 -70 129 -57 67 31 125 107 168 222 14 36 42
105 62 154 49 117 58 200 26 245 -13 17 -35 38 -51 46 -33 17 -80 20 -80 5z"/>
<path d="M5591 3098 c-22 -29 -70 -91 -106 -138 -148 -193 -222 -410 -171
-507 29 -57 142 -69 193 -21 28 26 64 92 83 153 7 22 23 60 35 85 13 25 26 63
30 85 3 22 22 88 41 147 32 103 41 174 28 226 -5 18 -13 22 -50 22 -41 0 -46
-3 -83 -52z"/>
<path d="M5638 2145 c-58 -32 -90 -136 -59 -194 11 -20 18 -22 48 -16 77 14
114 51 127 128 6 33 3 41 -23 67 -33 33 -53 36 -93 15z"/>
</g>
</svg>
